<svg width="30" height="30" viewBox="0 0 30 30" fill="none" xmlns="http://www.w3.org/2000/svg">
<g clip-path="url(#clip0_3_125)">
<path d="M27.5 8.75H18.75V6.25H27.5V8.75ZM29.6575 21.25C29.105 22.8713 27.1212 25 23.2812 25C19.4387 25 16.3262 22.8387 16.3262 17.9062C16.3262 13.0187 19.2325 10.5062 23.1587 10.5062C27.0112 10.5062 29.3637 12.7338 29.8775 16.0388C29.975 16.6713 30.0137 17.5237 29.9962 18.7137H19.9625C20.125 22.7275 24.3162 22.8537 25.6975 21.25H29.6575ZM20.05 16.25H26.2562C26.125 14.3162 24.8362 13.4763 23.16 13.4763C21.3275 13.4763 20.3137 14.4363 20.05 16.25ZM8.0825 24.985H0V6.27625H8.69125C15.5362 6.3775 15.6662 13.0813 12.0912 14.9088C16.4175 16.4838 16.5625 24.985 8.0825 24.985V24.985ZM3.75 13.75H8.23C11.365 13.75 11.8625 10 7.84 10H3.75V13.75ZM7.98875 17.5H3.75V21.27H7.92625C11.745 21.27 11.5112 17.5 7.98875 17.5V17.5Z" fill="black"/>
</g>
<defs>
<clipPath id="clip0_3_125">
<rect width="30" height="30" fill="white"/>
</clipPath>
</defs>
</svg>
