<svg width="62" height="19" viewBox="0 0 62 19" fill="none" xmlns="http://www.w3.org/2000/svg">
<path d="M12.55 0.449999V12.4C12.55 14.25 12.025 15.675 10.975 16.675C9.94167 17.675 8.54167 18.175 6.775 18.175C4.925 18.175 3.44167 17.65 2.325 16.6C1.20833 15.55 0.65 14.0583 0.65 12.125H4.9C4.9 12.8583 5.05 13.4167 5.35 13.8C5.65 14.1667 6.08333 14.35 6.65 14.35C7.16667 14.35 7.56667 14.1833 7.85 13.85C8.13333 13.5167 8.275 13.0333 8.275 12.4V0.449999H12.55ZM22.3531 18.2C20.9865 18.2 19.7531 17.9083 18.6531 17.325C17.5698 16.7417 16.7115 15.9083 16.0781 14.825C15.4615 13.7417 15.1531 12.475 15.1531 11.025C15.1531 9.59167 15.4698 8.33333 16.1031 7.25C16.7365 6.15 17.6031 5.30833 18.7031 4.725C19.8031 4.14167 21.0365 3.85 22.4031 3.85C23.7698 3.85 25.0031 4.14167 26.1031 4.725C27.2031 5.30833 28.0698 6.15 28.7031 7.25C29.3365 8.33333 29.6531 9.59167 29.6531 11.025C29.6531 12.4583 29.3281 13.725 28.6781 14.825C28.0448 15.9083 27.1698 16.7417 26.0531 17.325C24.9531 17.9083 23.7198 18.2 22.3531 18.2ZM22.3531 14.5C23.1698 14.5 23.8615 14.2 24.4281 13.6C25.0115 13 25.3031 12.1417 25.3031 11.025C25.3031 9.90833 25.0198 9.05 24.4531 8.45C23.9031 7.85 23.2198 7.55 22.4031 7.55C21.5698 7.55 20.8781 7.85 20.3281 8.45C19.7781 9.03333 19.5031 9.89167 19.5031 11.025C19.5031 12.1417 19.7698 13 20.3031 13.6C20.8531 14.2 21.5365 14.5 22.3531 14.5ZM40.4211 3.9C42.0544 3.9 43.3544 4.43333 44.3211 5.5C45.3044 6.55 45.7961 8 45.7961 9.85V18H41.5461V10.425C41.5461 9.49167 41.3044 8.76667 40.8211 8.25C40.3378 7.73333 39.6878 7.475 38.8711 7.475C38.0544 7.475 37.4044 7.73333 36.9211 8.25C36.4378 8.76667 36.1961 9.49167 36.1961 10.425V18H31.9211V4.05H36.1961V5.9C36.6294 5.28333 37.2128 4.8 37.9461 4.45C38.6794 4.08333 39.5044 3.9 40.4211 3.9ZM61.9168 10.8C61.9168 11.2 61.8918 11.6167 61.8418 12.05H52.1668C52.2335 12.9167 52.5085 13.5833 52.9918 14.05C53.4918 14.5 54.1001 14.725 54.8168 14.725C55.8835 14.725 56.6251 14.275 57.0418 13.375H61.5918C61.3585 14.2917 60.9335 15.1167 60.3168 15.85C59.7168 16.5833 58.9585 17.1583 58.0418 17.575C57.1251 17.9917 56.1001 18.2 54.9668 18.2C53.6001 18.2 52.3835 17.9083 51.3168 17.325C50.2501 16.7417 49.4168 15.9083 48.8168 14.825C48.2168 13.7417 47.9168 12.475 47.9168 11.025C47.9168 9.575 48.2085 8.30833 48.7918 7.225C49.3918 6.14167 50.2251 5.30833 51.2918 4.725C52.3585 4.14167 53.5835 3.85 54.9668 3.85C56.3168 3.85 57.5168 4.13333 58.5668 4.7C59.6168 5.26667 60.4335 6.075 61.0168 7.125C61.6168 8.175 61.9168 9.4 61.9168 10.8ZM57.5418 9.675C57.5418 8.94167 57.2918 8.35833 56.7918 7.925C56.2918 7.49167 55.6668 7.275 54.9168 7.275C54.2001 7.275 53.5918 7.48333 53.0918 7.9C52.6085 8.31667 52.3085 8.90833 52.1918 9.675H57.5418Z" fill="black"/>
</svg>
